<?xml version="1.0" encoding="UTF-8" standalone="no"?>
<!-- Created with Inkscape (http://www.inkscape.org/) -->

<svg
   xmlns:dc="http://purl.org/dc/elements/1.1/"
   xmlns:cc="http://creativecommons.org/ns#"
   xmlns:rdf="http://www.w3.org/1999/02/22-rdf-syntax-ns#"
   xmlns:svg="http://www.w3.org/2000/svg"
   xmlns="http://www.w3.org/2000/svg"
   xmlns:sodipodi="http://sodipodi.sourceforge.net/DTD/sodipodi-0.dtd"
   xmlns:inkscape="http://www.inkscape.org/namespaces/inkscape"
   width="8.1906404mm"
   height="5.3844399mm"
   viewBox="0 0 8.1906404 5.3844399"
   version="1.1"
   id="svg3933"
   inkscape:version="0.92.3 (2405546, 2018-03-11)"
   sodipodi:docname="arrow-keys.svg">
  <defs
     id="defs3927" />
  <sodipodi:namedview
     id="base"
     pagecolor="#ffffff"
     bordercolor="#666666"
     borderopacity="1.0"
     inkscape:pageopacity="0.0"
     inkscape:pageshadow="2"
     inkscape:zoom="7.9195959"
     inkscape:cx="32.44154"
     inkscape:cy="-10.09999"
     inkscape:document-units="mm"
     inkscape:current-layer="layer1"
     showgrid="false"
     inkscape:window-width="1366"
     inkscape:window-height="703"
     inkscape:window-x="0"
     inkscape:window-y="0"
     inkscape:window-maximized="1" />
  <metadata
     id="metadata3930">
    <rdf:RDF>
      <cc:Work
         rdf:about="">
        <dc:format>image/svg+xml</dc:format>
        <dc:type
           rdf:resource="http://purl.org/dc/dcmitype/StillImage" />
        <dc:title></dc:title>
      </cc:Work>
    </rdf:RDF>
  </metadata>
  <g
     inkscape:label="Layer 1"
     inkscape:groupmode="layer"
     id="layer1"
     transform="translate(-125.92849,-160.50421)">
    <path
       inkscape:connector-curvature="0"
       d="m 130.92003,160.50421 h -1.77901 c -0.20575,0 -0.37283,0.16684 -0.37283,0.37259 v 1.77901 c 0,0.20583 0.16708,0.37283 0.37283,0.37283 h 1.77901 c 0.20575,0 0.373,-0.167 0.373,-0.37283 v -1.77901 c 0,-0.20575 -0.16725,-0.37259 -0.373,-0.37259 z m -1.15914,1.37627 0.26972,-0.4011 0.26955,0.4011 z"
       id="path3871"
       style="stroke-width:0.08190636" />
    <path
       inkscape:connector-curvature="0"
       d="m 130.91339,163.36421 h -1.779 c -0.20583,0 -0.37259,0.16685 -0.37259,0.37284 v 1.7786 c 0,0.20624 0.16684,0.373 0.37259,0.373 h 1.779 c 0.20608,0 0.37301,-0.16676 0.37301,-0.373 v -1.7786 c 0,-0.20599 -0.16693,-0.37284 -0.37301,-0.37284 z m -0.88278,1.5319 -0.26972,-0.40118 h 0.53919 z"
       id="path3873"
       style="stroke-width:0.08190636" />
    <path
       inkscape:connector-curvature="0"
       d="m 133.74678,163.36421 h -1.77892 c -0.20616,0 -0.373,0.16685 -0.373,0.37284 v 1.7786 c 0,0.20624 0.16684,0.373 0.373,0.373 h 1.77892 c 0.20624,0 0.37235,-0.16676 0.37235,-0.373 v -1.7786 c 0,-0.20599 -0.16611,-0.37284 -0.37235,-0.37284 z m -0.98697,1.5319 v -0.5396 l 0.40118,0.26996 z"
       id="path3875"
       style="stroke-width:0.08190636" />
    <path
       inkscape:connector-curvature="0"
       d="m 128.08009,163.36421 h -1.77892 c -0.20584,0 -0.37268,0.16685 -0.37268,0.37284 v 1.7786 c 0,0.20624 0.16684,0.373 0.37268,0.373 h 1.77892 c 0.20575,0 0.37284,-0.16676 0.37284,-0.373 v -1.7786 c 0,-0.20599 -0.16709,-0.37284 -0.37284,-0.37284 z m -0.7845,1.5319 -0.40101,-0.26964 0.40101,-0.26996 z"
       id="path3877"
       style="stroke-width:0.08190636" />
  </g>
</svg>
