<?xml version="1.0" encoding="UTF-8" standalone="no"?>
<svg
   xmlns:dc="http://purl.org/dc/elements/1.1/"
   xmlns:cc="http://creativecommons.org/ns#"
   xmlns:rdf="http://www.w3.org/1999/02/22-rdf-syntax-ns#"
   xmlns:svg="http://www.w3.org/2000/svg"
   xmlns="http://www.w3.org/2000/svg"
   xmlns:sodipodi="http://sodipodi.sourceforge.net/DTD/sodipodi-0.dtd"
   xmlns:inkscape="http://www.inkscape.org/namespaces/inkscape"
   version="1.1"
   x="0px"
   y="0px"
   viewBox="0 0 20.590946 19.160238"
   xml:space="preserve"
   id="svg3805"
   sodipodi:docname="enter-key.svg"
   width="20.590946"
   height="19.160238"
   inkscape:version="0.92.3 (2405546, 2018-03-11)"><metadata
     id="metadata3811"><rdf:RDF><cc:Work
         rdf:about=""><dc:format>image/svg+xml</dc:format><dc:type
           rdf:resource="http://purl.org/dc/dcmitype/StillImage" /><dc:title></dc:title></cc:Work></rdf:RDF></metadata><defs
     id="defs3809" /><sodipodi:namedview
     pagecolor="#ffffff"
     bordercolor="#666666"
     borderopacity="1"
     objecttolerance="10"
     gridtolerance="10"
     guidetolerance="10"
     inkscape:pageopacity="0"
     inkscape:pageshadow="2"
     inkscape:window-width="1366"
     inkscape:window-height="703"
     id="namedview3807"
     showgrid="false"
     inkscape:zoom="8.24"
     inkscape:cx="35.360091"
     inkscape:cy="12.475354"
     inkscape:window-x="0"
     inkscape:window-y="0"
     inkscape:window-maximized="1"
     inkscape:current-layer="svg3805" /><path
     d="M 18.870878,0 H 10.619543 C 9.67226,0 8.899477,0.727901 8.899477,1.620167 v 5.49448 c 0,0.845306 -0.722928,1.526246 -1.620354,1.526246 H 1.620353 C 0.722927,8.640893 0,9.321832 0,10.190617 v 7.349455 c 0,0.892266 0.772784,1.620167 1.720068,1.620167 h 17.15081 c 0.947283,0 1.720068,-0.727901 1.720068,-1.620167 V 1.620167 C 20.590946,0.727901 19.818161,0 18.870878,0 Z m -5.010629,13.783162 c 0,0.399172 -0.349,0.704421 -0.772783,0.704421 H 5.982841 c -0.04985,0 -0.07478,0.04695 -0.02493,0.07045 l 1.046997,0.986189 c 0.04985,0.04695 0.04985,0.117403 0,0.164364 l -0.722927,0.680941 c -0.04985,0.04695 -0.124642,0.04695 -0.174499,0 L 3.963629,14.37018 c -0.299142,-0.281769 -0.299142,-0.727902 0,-1.00967 l 2.093995,-1.972377 c 0.04985,-0.04695 0.124642,-0.04695 0.174499,0 l 0.722927,0.680939 c 0.04985,0.04696 0.04985,0.117403 0,0.164365 l -1.046997,0.986189 c -0.02493,0.02348 0,0.07045 0.02493,0.07045 h 6.531268 c 0.07478,0 0.124643,-0.04695 0.124643,-0.117404 v -2.277626 c 0,-0.07045 0.04985,-0.117403 0.124643,-0.117403 h 1.022068 c 0.07478,0 0.124643,0.04695 0.124643,0.117403 z m 4.611774,-7.678184 c 0,0.04697 -0.02493,0.07045 -0.07478,0.07045 h -0.648142 c -0.04985,0 -0.07478,-0.02348 -0.07478,-0.07045 V 3.310776 c 0,-0.305248 -0.249286,-0.540055 -0.573357,-0.540055 h -2.81692 c -0.04985,0 -0.07478,-0.02348 -0.07478,-0.07045 V 2.089773 c 0,-0.04696 0.02493,-0.07045 0.07478,-0.07045 h 2.81692 c 0.747855,0 1.371068,0.563536 1.371068,1.291437 z"
     id="path3799"
     inkscape:connector-curvature="0"
     style="stroke-width:0.24193767" /></svg>