<?xml version="1.0" encoding="UTF-8" standalone="no"?>
<!-- Created with Inkscape (http://www.inkscape.org/) -->

<svg
   xmlns:dc="http://purl.org/dc/elements/1.1/"
   xmlns:cc="http://creativecommons.org/ns#"
   xmlns:rdf="http://www.w3.org/1999/02/22-rdf-syntax-ns#"
   xmlns:svg="http://www.w3.org/2000/svg"
   xmlns="http://www.w3.org/2000/svg"
   xmlns:sodipodi="http://sodipodi.sourceforge.net/DTD/sodipodi-0.dtd"
   xmlns:inkscape="http://www.inkscape.org/namespaces/inkscape"
   width="8.1906404mm"
   height="5.3844399mm"
   viewBox="0 0 8.1906404 5.3844399"
   version="1.1"
   id="svg3933"
   inkscape:version="0.92.3 (2405546, 2018-03-11)"
   sodipodi:docname="enter-key.svg">
  <defs
     id="defs3927" />
  <sodipodi:namedview
     id="base"
     pagecolor="#ffffff"
     bordercolor="#666666"
     borderopacity="1.0"
     inkscape:pageopacity="0.0"
     inkscape:pageshadow="2"
     inkscape:zoom="7.9195959"
     inkscape:cx="15.900292"
     inkscape:cy="-10.09999"
     inkscape:document-units="mm"
     inkscape:current-layer="layer1"
     showgrid="false"
     inkscape:window-width="1366"
     inkscape:window-height="703"
     inkscape:window-x="0"
     inkscape:window-y="0"
     inkscape:window-maximized="1" />
  <metadata
     id="metadata3930">
    <rdf:RDF>
      <cc:Work
         rdf:about="">
        <dc:format>image/svg+xml</dc:format>
        <dc:type
           rdf:resource="http://purl.org/dc/dcmitype/StillImage" />
        <dc:title></dc:title>
      </cc:Work>
    </rdf:RDF>
  </metadata>
  <g
     inkscape:label="Layer 1"
     inkscape:groupmode="layer"
     id="layer1"
     transform="translate(-125.92849,-160.50421)">
    <path
       d="m 132.10622,160.6478 h -2.18317 c -0.25063,0 -0.4551,0.19259 -0.4551,0.42867 v 1.45375 c 0,0.22365 -0.19127,0.40382 -0.42872,0.40382 h -1.49721 c -0.23745,0 -0.42872,0.18016 -0.42872,0.41003 v 1.94454 c 0,0.23608 0.20447,0.42867 0.4551,0.42867 h 4.53782 c 0.25064,0 0.4551,-0.19259 0.4551,-0.42867 v -4.21214 c 0,-0.23608 -0.20446,-0.42867 -0.4551,-0.42867 z m -1.32573,3.64679 c 0,0.10562 -0.0923,0.18638 -0.20446,0.18638 h -1.87977 c -0.0132,0 -0.0198,0.0124 -0.007,0.0186 l 0.27702,0.26093 c 0.0132,0.0124 0.0132,0.0311 0,0.0435 l -0.19127,0.18017 c -0.0132,0.0124 -0.033,0.0124 -0.0462,0 l -0.56723,-0.53429 c -0.0791,-0.0745 -0.0791,-0.19259 0,-0.26714 l 0.55404,-0.52186 c 0.0132,-0.0124 0.033,-0.0124 0.0462,0 l 0.19127,0.18017 c 0.0132,0.0124 0.0132,0.0311 0,0.0435 l -0.27702,0.26093 c -0.007,0.006 0,0.0186 0.007,0.0186 h 1.72806 c 0.0198,0 0.033,-0.0124 0.033,-0.0311 v -0.60262 c 0,-0.0186 0.0132,-0.0311 0.033,-0.0311 h 0.27042 c 0.0198,0 0.033,0.0124 0.033,0.0311 z m 1.2202,-2.03151 c 0,0.0124 -0.007,0.0186 -0.0198,0.0186 h -0.17148 c -0.0132,0 -0.0198,-0.006 -0.0198,-0.0186 v -0.7393 c 0,-0.0808 -0.066,-0.14289 -0.1517,-0.14289 h -0.74531 c -0.0132,0 -0.0198,-0.006 -0.0198,-0.0186 v -0.16153 c 0,-0.0124 0.007,-0.0186 0.0198,-0.0186 h 0.74531 c 0.19787,0 0.36276,0.1491 0.36276,0.34169 z"
       id="path3799"
       inkscape:connector-curvature="0"
       style="stroke-width:0.06401268" />
  </g>
</svg>
