<?xml version="1.0" encoding="UTF-8" standalone="no"?>
<!-- Created with Inkscape (http://www.inkscape.org/) -->

<svg
   xmlns:dc="http://purl.org/dc/elements/1.1/"
   xmlns:cc="http://creativecommons.org/ns#"
   xmlns:rdf="http://www.w3.org/1999/02/22-rdf-syntax-ns#"
   xmlns:svg="http://www.w3.org/2000/svg"
   xmlns="http://www.w3.org/2000/svg"
   xmlns:sodipodi="http://sodipodi.sourceforge.net/DTD/sodipodi-0.dtd"
   xmlns:inkscape="http://www.inkscape.org/namespaces/inkscape"
   width="8.1906404mm"
   height="5.3844399mm"
   viewBox="0 0 8.1906404 5.3844399"
   version="1.1"
   id="svg3933"
   inkscape:version="0.92.3 (2405546, 2018-03-11)"
   sodipodi:docname="arrow-keys (copy).svg">
  <defs
     id="defs3927" />
  <sodipodi:namedview
     id="base"
     pagecolor="#ffffff"
     bordercolor="#666666"
     borderopacity="1.0"
     inkscape:pageopacity="0.0"
     inkscape:pageshadow="2"
     inkscape:zoom="15.839192"
     inkscape:cx="19.091719"
     inkscape:cy="8.8812072"
     inkscape:document-units="mm"
     inkscape:current-layer="layer1"
     showgrid="false"
     inkscape:window-width="1366"
     inkscape:window-height="703"
     inkscape:window-x="0"
     inkscape:window-y="0"
     inkscape:window-maximized="1" />
  <metadata
     id="metadata3930">
    <rdf:RDF>
      <cc:Work
         rdf:about="">
        <dc:format>image/svg+xml</dc:format>
        <dc:type
           rdf:resource="http://purl.org/dc/dcmitype/StillImage" />
        <dc:title />
      </cc:Work>
    </rdf:RDF>
  </metadata>
  <g
     inkscape:label="Layer 1"
     inkscape:groupmode="layer"
     id="layer1"
     transform="translate(-125.92849,-160.50421)">
    <path
       inkscape:connector-curvature="0"
       d="m 130.92003,160.50421 h -1.77901 c -0.20575,0 -0.37283,0.16684 -0.37283,0.37259 v 1.77901 c 0,0.20583 0.16708,0.37283 0.37283,0.37283 h 1.77901 c 0.20575,0 0.373,-0.167 0.373,-0.37283 v -1.77901 c 0,-0.20575 -0.16725,-0.37259 -0.373,-0.37259 z"
       id="path3871"
       style="stroke-width:0.08190636"
       sodipodi:nodetypes="sssssssss" />
    <path
       inkscape:connector-curvature="0"
       d="m 130.91339,163.36421 h -1.779 c -0.20583,0 -0.37259,0.16685 -0.37259,0.37284 v 1.7786 c 0,0.20624 0.16684,0.373 0.37259,0.373 h 1.779 c 0.20608,0 0.37301,-0.16676 0.37301,-0.373 v -1.7786 c 0,-0.20599 -0.16693,-0.37284 -0.37301,-0.37284 z"
       id="path3873"
       style="stroke-width:0.08190636"
       sodipodi:nodetypes="sssssssss" />
    <path
       inkscape:connector-curvature="0"
       d="m 133.74678,163.36421 h -1.77892 c -0.20616,0 -0.373,0.16685 -0.373,0.37284 v 1.7786 c 0,0.20624 0.16684,0.373 0.373,0.373 h 1.77892 c 0.20624,0 0.37235,-0.16676 0.37235,-0.373 v -1.7786 c 0,-0.20599 -0.16611,-0.37284 -0.37235,-0.37284 z"
       id="path3875"
       style="stroke-width:0.08190636"
       sodipodi:nodetypes="sssssssss" />
    <path
       inkscape:connector-curvature="0"
       d="m 128.08009,163.36421 h -1.77892 c -0.20584,0 -0.37268,0.16685 -0.37268,0.37284 v 1.7786 c 0,0.20624 0.16684,0.373 0.37268,0.373 h 1.77892 c 0.20575,0 0.37284,-0.16676 0.37284,-0.373 v -1.7786 c 0,-0.20599 -0.16709,-0.37284 -0.37284,-0.37284 z"
       id="path3877"
       style="stroke-width:0.08190636"
       sodipodi:nodetypes="sssssssss" />
    <path
       inkscape:connector-curvature="0"
       id="path15"
       style="font-style:normal;font-variant:normal;font-weight:bold;font-stretch:normal;font-size:medium;line-height:1.25;font-family:'Courier 10 Pitch';-inkscape-font-specification:'Courier 10 Pitch Bold';letter-spacing:0px;word-spacing:0px;fill:#ffffff;fill-opacity:1;stroke:none;stroke-width:0.05014398"
       d="m 130.02708,161.68516 0.20929,0.49614 c 0.0235,0.0582 0.0352,0.0804 0.11522,0.0804 h 0.0541 c 0.0752,0 0.0917,-0.005 0.10112,-0.0701 l 0.11288,-0.73565 c 0.007,0 0.0117,0 0.0188,0 0.0823,0 0.12464,-0.0325 0.12464,-0.0924 0,-0.0701 -0.047,-0.0924 -0.14345,-0.0924 h -0.27748 c -0.0964,0 -0.14344,0.0223 -0.14344,0.0924 0,0.0633 0.0423,0.0924 0.13168,0.0924 h 0.0306 l -0.04,0.48929 -0.14579,-0.36098 c -0.0235,-0.0565 -0.0705,-0.0804 -0.1458,-0.0804 -0.0753,0 -0.12463,0.024 -0.14579,0.0804 l -0.14109,0.36098 -0.0423,-0.48929 h 0.0305 c 0.0894,0 0.13169,-0.0291 0.13169,-0.0924 0,-0.0701 -0.047,-0.0924 -0.14345,-0.0924 h -0.27748 c -0.0964,0 -0.14344,0.0223 -0.14344,0.0924 0,0.0599 0.0424,0.0924 0.12463,0.0924 0.007,0 0.0118,0 0.0188,0 l 0.11053,0.73565 c 0.009,0.065 0.0282,0.0701 0.10346,0.0701 h 0.0541 c 0.0776,0 0.0917,-0.0223 0.11522,-0.0804 z" />
    <path
       inkscape:connector-curvature="0"
       id="path17"
       style="font-style:normal;font-variant:normal;font-weight:bold;font-stretch:normal;font-size:medium;line-height:1.25;font-family:'Courier 10 Pitch';-inkscape-font-specification:'Courier 10 Pitch Bold';letter-spacing:0px;word-spacing:0px;fill:#ffffff;fill-opacity:1;stroke:none;stroke-width:0.05014398"
       d="m 126.86974,164.9386 0.0494,-0.0975 h 0.49617 l 0.047,0.0975 h -0.04 c -0.0964,0 -0.1458,0.0206 -0.1458,0.0907 0,0.0701 0.0494,0.0924 0.1458,0.0924 h 0.34567 c 0.0964,0 0.1458,-0.0223 0.1458,-0.0924 0,-0.0599 -0.0447,-0.0907 -0.12699,-0.0907 -0.004,0 -0.0118,0 -0.0188,0 l -0.36448,-0.72539 c -0.0305,-0.0616 -0.04,-0.0821 -0.14345,-0.0821 h -0.43033 c -0.0988,0 -0.14579,0.024 -0.14579,0.0924 0,0.0701 0.047,0.0924 0.14344,0.0924 h 0.0941 l -0.30805,0.62274 c -0.007,0 -0.0141,0 -0.0188,0 -0.0823,0 -0.12698,0.0308 -0.12698,0.0907 0,0.0701 0.0494,0.0924 0.1458,0.0924 h 0.29629 c 0.0964,0 0.14579,-0.0223 0.14579,-0.0924 0,-0.0701 -0.0494,-0.0907 -0.14579,-0.0907 z m 0.12933,-0.27031 0.16696,-0.35243 0.16696,0.35243 z" />
    <path
       inkscape:connector-curvature="0"
       id="path19"
       style="font-style:normal;font-variant:normal;font-weight:bold;font-stretch:normal;font-size:medium;line-height:1.25;font-family:'Courier 10 Pitch';-inkscape-font-specification:'Courier 10 Pitch Bold';letter-spacing:0px;word-spacing:0px;fill:#ffffff;fill-opacity:1;stroke:none;stroke-width:0.05014398"
       d="m 129.69689,165.10739 c 0.11992,0.0325 0.22809,0.0411 0.34567,0.0411 0.35743,0 0.55496,-0.11463 0.55496,-0.31993 0,-0.16937 -0.13404,-0.26176 -0.41858,-0.30453 -0.2375,-0.0359 -0.36918,-0.0445 -0.36918,-0.13173 0,-0.0684 0.087,-0.12319 0.23045,-0.12319 0.11052,0 0.19282,0.0376 0.23985,0.10437 0.0282,0.041 0.0377,0.0787 0.13169,0.0787 0.0893,0 0.11757,-0.0257 0.11757,-0.089 0,-0.004 0,-0.005 0,-0.009 l -0.004,-0.16082 c -0.002,-0.0718 -0.0212,-0.089 -0.0964,-0.089 -0.0635,0 -0.0917,0.005 -0.11758,0.0462 -0.0988,-0.0308 -0.19518,-0.0462 -0.301,-0.0462 -0.31275,0 -0.52909,0.13344 -0.52909,0.32334 0,0.16938 0.13639,0.23268 0.39506,0.2823 0.25867,0.0496 0.39035,0.0496 0.39035,0.15739 0,0.0787 -0.0846,0.12147 -0.22339,0.12147 -0.15521,0 -0.25867,-0.0411 -0.31981,-0.12832 -0.0423,-0.0599 -0.0541,-0.10778 -0.14345,-0.10778 -0.0964,0 -0.12933,0.0274 -0.12933,0.0992 0,0.004 0,0.005 0,0.009 l 0.007,0.19675 c 0.002,0.0701 0.0377,0.0907 0.13169,0.0907 0.0517,0 0.0823,-0.009 0.10817,-0.0411 z" />
    <path
       inkscape:connector-curvature="0"
       id="path21"
       style="font-style:normal;font-variant:normal;font-weight:bold;font-stretch:normal;font-size:medium;line-height:1.25;font-family:'Courier 10 Pitch';-inkscape-font-specification:'Courier 10 Pitch Bold';letter-spacing:0px;word-spacing:0px;fill:#ffffff;fill-opacity:1;stroke:none;stroke-width:0.05014398"
       d="m 132.67005,164.93688 v -0.62445 c 0.0235,-0.002 0.047,-0.002 0.0682,-0.002 0.28218,0 0.41857,0.10265 0.41857,0.31308 0,0.21557 -0.13403,0.3148 -0.42092,0.3148 -0.0212,0 -0.0423,0 -0.0659,-0.002 z m -0.29629,0.18477 h 0.21633 c 0.0447,0 0.087,0 0.12934,0 0.17402,0 0.32216,-0.004 0.44208,-0.0513 0.20459,-0.0787 0.32451,-0.23781 0.32451,-0.44482 0,-0.19846 -0.1058,-0.34901 -0.28687,-0.42942 -0.14109,-0.0616 -0.32216,-0.065 -0.54086,-0.065 -0.0235,0 -0.0447,0 -0.0682,0 h -0.21633 c -0.0988,0 -0.14581,0.024 -0.14581,0.0924 0,0.0599 0.0447,0.0924 0.12699,0.0924 0.007,0 0.0118,0 0.0188,0 v 0.62274 c -0.007,0 -0.0142,0 -0.0188,0 -0.0823,0 -0.12699,0.0308 -0.12699,0.0907 0,0.0701 0.0494,0.0924 0.14581,0.0924 z" />
  </g>
</svg>
